<svg width="25" height="24" viewBox="0 0 25 24" fill="none" xmlns="http://www.w3.org/2000/svg">
<path fill-rule="evenodd" clip-rule="evenodd" d="M9.41657 2.43004C9.63746 2.93622 9.40618 3.52564 8.9 3.74653C7.55259 4.33451 6.36973 5.24362 5.45484 6.39435C4.53994 7.54509 3.92087 8.90243 3.65173 10.3477C3.3826 11.793 3.47161 13.2822 3.91097 14.6851C4.35033 16.088 5.12667 17.3619 6.17211 18.3955C7.21756 19.4291 8.50028 20.1908 9.90813 20.6141C11.316 21.0375 12.8061 21.1095 14.2482 20.8238C15.6903 20.5382 17.0405 19.9037 18.1807 18.9757C19.3209 18.0477 20.2164 16.8546 20.789 15.5005C21.0041 14.9919 21.5908 14.7539 22.0995 14.969C22.6082 15.1841 22.8462 15.7708 22.6311 16.2795C21.9313 17.9344 20.8367 19.3927 19.4431 20.5269C18.0495 21.6611 16.3993 22.4366 14.6368 22.7857C12.8742 23.1348 11.0529 23.0468 9.33224 22.5294C7.61153 22.0121 6.04377 21.081 4.766 19.8178C3.48823 18.5545 2.53937 16.9975 2.00238 15.2828C1.46538 13.5681 1.35659 11.748 1.68553 9.98156C2.01447 8.21512 2.77112 6.55615 3.88933 5.1497C5.00753 3.74324 6.45325 2.63211 8.10008 1.91346C8.60627 1.69257 9.19568 1.92385 9.41657 2.43004Z" fill="#695CFF"/>
<path fill-rule="evenodd" clip-rule="evenodd" d="M9.41657 2.43004C9.63746 2.93622 9.40618 3.52564 8.9 3.74653C7.55259 4.33451 6.36973 5.24362 5.45484 6.39435C4.53994 7.54509 3.92087 8.90243 3.65173 10.3477C3.3826 11.793 3.47161 13.2822 3.91097 14.6851C4.35033 16.088 5.12667 17.3619 6.17211 18.3955C7.21756 19.4291 8.50028 20.1908 9.90813 20.6141C11.316 21.0375 12.8061 21.1095 14.2482 20.8238C15.6903 20.5382 17.0405 19.9037 18.1807 18.9757C19.3209 18.0477 20.2164 16.8546 20.789 15.5005C21.0041 14.9919 21.5908 14.7539 22.0995 14.969C22.6082 15.1841 22.8462 15.7708 22.6311 16.2795C21.9313 17.9344 20.8367 19.3927 19.4431 20.5269C18.0495 21.6611 16.3993 22.4366 14.6368 22.7857C12.8742 23.1348 11.0529 23.0468 9.33224 22.5294C7.61153 22.0121 6.04377 21.081 4.766 19.8178C3.48823 18.5545 2.53937 16.9975 2.00238 15.2828C1.46538 13.5681 1.35659 11.748 1.68553 9.98156C2.01447 8.21512 2.77112 6.55615 3.88933 5.1497C5.00753 3.74324 6.45325 2.63211 8.10008 1.91346C8.60627 1.69257 9.19568 1.92385 9.41657 2.43004Z" fill="url(#paint0_linear_32_112)" fill-opacity="0.7"/>
<path fill-rule="evenodd" clip-rule="evenodd" d="M11.7929 1.29289C11.9804 1.10536 12.2348 1 12.5 1C13.9445 1 15.3749 1.28452 16.7095 1.83733C18.0441 2.39013 19.2567 3.20038 20.2782 4.22183C21.2996 5.24327 22.1099 6.4559 22.6627 7.79048C23.2155 9.12506 23.5 10.5555 23.5 12C23.5 12.5523 23.0523 13 22.5 13H12.5C11.9477 13 11.5 12.5523 11.5 12V2C11.5 1.73478 11.6054 1.48043 11.7929 1.29289ZM13.5 3.05573V11H21.4443C21.3505 10.1614 21.1391 9.33849 20.8149 8.55585C20.3626 7.46392 19.6997 6.47177 18.864 5.63604C18.0282 4.80031 17.0361 4.13738 15.9442 3.68508C15.1615 3.3609 14.3386 3.14949 13.5 3.05573Z" fill="#695CFF"/>
<path fill-rule="evenodd" clip-rule="evenodd" d="M11.7929 1.29289C11.9804 1.10536 12.2348 1 12.5 1C13.9445 1 15.3749 1.28452 16.7095 1.83733C18.0441 2.39013 19.2567 3.20038 20.2782 4.22183C21.2996 5.24327 22.1099 6.4559 22.6627 7.79048C23.2155 9.12506 23.5 10.5555 23.5 12C23.5 12.5523 23.0523 13 22.5 13H12.5C11.9477 13 11.5 12.5523 11.5 12V2C11.5 1.73478 11.6054 1.48043 11.7929 1.29289ZM13.5 3.05573V11H21.4443C21.3505 10.1614 21.1391 9.33849 20.8149 8.55585C20.3626 7.46392 19.6997 6.47177 18.864 5.63604C18.0282 4.80031 17.0361 4.13738 15.9442 3.68508C15.1615 3.3609 14.3386 3.14949 13.5 3.05573Z" fill="url(#paint1_linear_32_112)" fill-opacity="0.7"/>
<defs>
<linearGradient id="paint0_linear_32_112" x1="1.49963" y1="12.4125" x2="22.7103" y2="12.4125" gradientUnits="userSpaceOnUse">
<stop stop-color="#695CFF"/>
<stop offset="1" stop-color="#A7A0F8"/>
</linearGradient>
<linearGradient id="paint1_linear_32_112" x1="11.5" y1="7" x2="23.5" y2="7" gradientUnits="userSpaceOnUse">
<stop stop-color="#695CFF"/>
<stop offset="1" stop-color="#A7A0F8"/>
</linearGradient>
</defs>
</svg>
