<svg width="74" height="24" viewBox="0 0 74 24" fill="none" xmlns="http://www.w3.org/2000/svg">
<path fill-rule="evenodd" clip-rule="evenodd" d="M36.2861 1.21065C36.6472 0.929784 37.1529 0.929784 37.514 1.21065L46.514 8.21065C46.7576 8.4001 46.9 8.69141 46.9 9V20C46.9 20.7957 46.584 21.5587 46.0213 22.1213C45.4587 22.6839 44.6957 23 43.9 23H29.9C29.1044 23 28.3413 22.6839 27.7787 22.1213C27.2161 21.5587 26.9 20.7957 26.9 20V9C26.9 8.69141 27.0425 8.4001 27.2861 8.21065L36.2861 1.21065ZM28.9 9.48908V20C28.9 20.2652 29.0054 20.5196 29.1929 20.7071C29.3805 20.8946 29.6348 21 29.9 21H43.9C44.1652 21 44.4196 20.8946 44.6071 20.7071C44.7947 20.5196 44.9 20.2652 44.9 20V9.48908L36.9 3.26686L28.9 9.48908Z" fill="#484C52"/>
<path fill-rule="evenodd" clip-rule="evenodd" d="M32.9 12C32.9 11.4477 33.3477 11 33.9 11H39.9C40.4523 11 40.9 11.4477 40.9 12V22C40.9 22.5523 40.4523 23 39.9 23C39.3477 23 38.9 22.5523 38.9 22V13H34.9V22C34.9 22.5523 34.4523 23 33.9 23C33.3477 23 32.9 22.5523 32.9 22V12Z" fill="#484C52"/>
</svg>
