<?xml version="1.0" standalone="no"?>
<!DOCTYPE svg PUBLIC "-//W3C//DTD SVG 20010904//EN"
 "http://www.w3.org/TR/2001/REC-SVG-20010904/DTD/svg10.dtd">
<svg version="1.0" xmlns="http://www.w3.org/2000/svg"
 width="196.000000pt" height="201.000000pt" viewBox="0 0 196.000000 201.000000"
 preserveAspectRatio="xMidYMid meet">
<metadata>
Created by potrace 1.10, written by Peter Selinger 2001-2011
</metadata>
<g transform="translate(0.000000,201.000000) scale(0.100000,-0.100000)"
fill="#000000" stroke="none">
<path d="M786 1825 c-122 -50 -199 -163 -200 -293 -1 -70 -3 -73 -32 -91 -70
-42 -169 -185 -198 -283 -10 -38 -17 -44 -60 -60 -105 -37 -171 -108 -203
-217 -33 -115 15 -260 112 -333 89 -68 196 -85 292 -46 53 22 63 23 79 11 76
-57 220 -103 324 -103 106 0 246 44 318 101 22 17 24 17 66 -2 156 -69 338 3
409 160 29 65 29 197 -1 264 -36 81 -99 132 -219 177 -13 6 -24 21 -28 42 -19
85 -112 224 -188 279 l-42 30 -1 73 c0 91 -33 163 -102 228 -92 86 -214 109
-326 63z m257 -72 c141 -95 155 -301 28 -416 -40 -36 -119 -67 -171 -67 -52 0
-131 31 -171 67 -161 146 -83 425 125 452 73 9 140 -4 189 -36z m-409 -387
c55 -93 150 -146 266 -146 116 0 211 53 266 146 14 24 29 44 34 44 4 0 36 -30
70 -67 57 -60 130 -185 130 -220 0 -8 -14 -13 -37 -13 -85 0 -198 -82 -245
-177 -19 -39 -23 -64 -23 -133 0 -95 22 -155 76 -210 l30 -29 -23 -15 c-13 -8
-50 -27 -83 -43 -56 -26 -68 -28 -195 -28 -127 0 -139 2 -195 28 -33 16 -71
35 -83 43 l-24 16 30 29 c77 75 103 212 62 321 -38 103 -159 198 -252 198 -48
0 -48 8 -2 99 32 65 144 201 164 201 5 0 20 -20 34 -44z m-137 -327 c56 -24
85 -49 122 -104 23 -36 26 -49 26 -135 0 -86 -3 -99 -26 -135 -57 -86 -127
-124 -229 -125 -54 0 -74 5 -116 30 -65 37 -110 91 -129 154 -19 62 -19 85 0
150 43 147 210 226 352 165z m1006 2 c97 -42 157 -129 159 -234 1 -74 -16
-126 -58 -175 -53 -62 -118 -92 -199 -92 -105 0 -185 50 -235 148 -19 37 -22
54 -18 125 5 86 25 134 79 184 65 60 188 80 272 44z"/>
<path d="M868 1693 c-14 -16 -43 -55 -64 -88 -33 -51 -39 -68 -39 -115 0 -85
54 -140 137 -140 81 0 133 55 133 140 0 46 -6 65 -35 110 -38 60 -88 120 -99
120 -4 0 -19 -12 -33 -27z m67 -93 c55 -87 61 -106 42 -144 -22 -48 -75 -65
-119 -39 -47 27 -56 68 -28 124 29 57 59 99 71 99 5 0 20 -18 34 -40z"/>
<path d="M395 960 c-11 -5 -38 -9 -61 -9 -22 -1 -48 -7 -57 -13 -9 -7 -25 -47
-36 -88 -11 -41 -23 -85 -26 -96 -6 -18 4 -30 61 -73 l67 -51 78 0 c51 0 81 4
86 13 4 6 23 50 41 97 l32 85 -74 73 c-77 75 -78 76 -111 62z m73 -100 l52
-49 -14 -33 c-8 -18 -19 -45 -25 -60 -10 -26 -15 -28 -69 -28 -49 0 -65 5 -99
30 l-41 31 19 66 c10 37 22 70 26 74 5 4 24 9 43 12 19 2 40 4 45 5 6 1 34
-21 63 -48z"/>
<path d="M1355 948 c-27 -16 -36 -28 -101 -135 -33 -54 -54 -99 -50 -108 5
-13 33 -15 203 -13 171 3 198 5 201 19 4 21 -103 193 -140 224 -32 27 -79 32
-113 13z m87 -55 c8 -10 30 -44 49 -75 18 -32 37 -58 42 -58 4 0 6 -4 3 -9 -8
-12 -256 -13 -256 -1 0 8 49 88 85 138 19 26 56 29 77 5z"/>
</g>
</svg>
