<svg width="25" height="24" viewBox="0 0 25 24" fill="none" xmlns="http://www.w3.org/2000/svg">
<path fill-rule="evenodd" clip-rule="evenodd" d="M12.3 3C7.32949 3 3.30005 7.02944 3.30005 12C3.30005 16.9706 7.32949 21 12.3 21C17.2706 21 21.3 16.9706 21.3 12C21.3 7.02944 17.2706 3 12.3 3ZM1.30005 12C1.30005 5.92487 6.22492 1 12.3 1C18.3752 1 23.3 5.92487 23.3 12C23.3 18.0751 18.3752 23 12.3 23C6.22492 23 1.30005 18.0751 1.30005 12Z" fill="#484C52"/>
<path fill-rule="evenodd" clip-rule="evenodd" d="M12.3 5C12.8523 5 13.3 5.44772 13.3 6V11.382L16.7473 13.1056C17.2412 13.3526 17.4415 13.9532 17.1945 14.4472C16.9475 14.9412 16.3468 15.1414 15.8528 14.8944L11.8528 12.8944C11.5141 12.725 11.3 12.3788 11.3 12V6C11.3 5.44772 11.7478 5 12.3 5Z" fill="#484C52"/>
</svg>
